<svg width="1388" height="407" viewBox="0 0 1388 407" fill="none" xmlns="http://www.w3.org/2000/svg">
<path d="M230.89 0L154.817 134.11L230.89 268.887L307.63 134.11L230.89 0Z" fill="#ED1C24"/>
<path d="M77.4077 268.887L0 402.997H153.481L230.888 268.887H77.4077Z" fill="#ED1C24"/>
<path d="M230.889 268.887L308.297 402.997H461.777L384.37 268.887H230.889Z" fill="#ED1C24"/>
<path d="M1041.67 224.183H1008.3V202.832V185.485H1041C1052.34 185.485 1061.02 194.159 1061.02 204.834C1061.02 214.842 1052.34 224.183 1041.67 224.183ZM1008.3 132.775H1041C1051.68 132.775 1058.35 140.114 1058.35 148.788C1058.35 157.462 1051.68 165.469 1041.67 165.469H1008.3V150.79V132.775ZM1064.35 174.142C1071.03 172.141 1083.71 160.131 1083.71 143.451C1083.71 126.77 1069.03 111.424 1049.67 111.424H982.942V150.123V202.832V245.534H1050.34C1065.02 245.534 1088.38 235.526 1088.38 208.17C1088.38 180.814 1064.35 174.142 1064.35 174.142Z" fill="black"/>
<path d="M483.798 268.219V403.663H577.888V378.309H511.157V344.949H571.215V322.263H511.157V292.906H576.554V268.219H483.798Z" fill="black"/>
<path d="M589.231 268.219V403.663H676.648V378.309H616.591V268.219H589.231Z" fill="black"/>
<path d="M687.327 268.219V403.663H781.417V378.309H714.686V344.949H774.744V322.263H714.686V292.906H780.082V268.219H687.327Z" fill="black"/>
<path d="M870.835 313.59C868.834 300.246 857.489 289.57 844.143 289.57C819.453 289.57 810.778 312.256 810.778 336.275C810.778 358.961 820.12 381.646 844.143 381.646C860.826 381.646 870.168 368.969 872.17 351.621H898.195C895.526 385.649 874.172 407 844.143 407C806.107 407 783.418 375.641 783.418 336.943C783.418 296.91 806.107 265.551 844.143 265.551C871.503 265.551 894.191 282.898 897.528 314.257H870.835V313.59Z" fill="black"/>
<path d="M896.86 268.219V292.906H934.23V403.663H960.922V292.906H998.291V268.219H896.86Z" fill="black"/>
<path d="M1035.66 329.603H1065.69C1077.7 329.603 1084.38 323.598 1084.38 310.254C1084.38 296.909 1077.7 291.572 1065.69 291.572H1035.66V329.603ZM1008.3 268.219H1075.03C1097.05 268.219 1111.07 284.9 1111.07 305.583C1111.07 321.596 1105.06 333.606 1091.72 339.611V340.278C1105.06 344.281 1109.07 358.293 1109.73 371.637C1110.4 380.311 1110.4 396.324 1115.07 403.663H1087.71C1084.38 394.99 1085.04 382.313 1083.71 370.97C1081.71 356.958 1077.03 350.286 1063.02 350.286H1035.66V402.996H1008.3V268.219Z" fill="black"/>
<path d="M1149.1 268.219H1121.74V403.663H1149.1V268.219Z" fill="black"/>
<path d="M1246.53 313.59C1244.53 300.246 1233.19 289.57 1219.84 289.57C1195.15 289.57 1186.47 312.256 1186.47 336.275C1186.47 358.961 1195.82 381.646 1219.84 381.646C1236.52 381.646 1245.86 368.969 1247.87 351.621H1273.89C1271.22 385.649 1249.87 407 1219.84 407C1181.8 407 1159.11 375.641 1159.11 336.943C1159.11 296.91 1181.8 265.551 1219.84 265.551C1247.2 265.551 1269.89 282.898 1273.22 314.257H1246.53V313.59Z" fill="black"/>
<path d="M806.773 108.088C834.8 108.088 855.487 124.768 855.487 150.122H830.796C830.129 131.44 807.441 128.104 793.427 132.775C788.089 134.776 784.085 138.112 782.75 144.117C781.416 149.455 783.418 156.127 788.089 158.129C806.106 166.803 826.125 166.803 843.475 175.476C858.823 183.483 863.494 202.832 858.156 218.178C855.487 225.517 851.483 231.522 844.81 236.86C840.806 239.529 836.802 241.53 832.798 243.532C829.462 245.534 825.458 245.534 821.454 246.868C804.104 250.871 786.754 248.87 772.073 239.529C759.394 231.522 752.721 218.845 752.721 204.166H778.746C778.746 223.516 798.098 230.188 819.452 224.85C826.125 222.848 832.798 217.511 833.466 210.171C834.133 204.834 831.464 198.829 826.125 196.827C810.11 190.155 792.76 188.821 776.744 182.148C760.062 174.809 750.719 154.126 757.393 136.111C765.4 116.094 784.752 108.088 806.773 108.088Z" fill="black"/>
<path d="M483.798 110.758V245.535H508.488V144.786L537.182 245.535H562.54L591.234 144.786V245.535H614.59V110.758H576.554L549.194 206.836L521.834 110.758H483.798Z" fill="black"/>
<path d="M653.294 110.758H627.269V245.535H653.294V110.758Z" fill="black"/>
<path d="M661.302 110.758V134.11H693.333V245.535H719.358V134.11H752.723V110.758H661.302Z" fill="black"/>
<path d="M893.524 202.165V111.424H867.5V202.165C867.5 232.857 886.184 248.203 920.884 248.203C955.584 248.203 973.601 230.188 973.601 202.165V111.424H947.576V202.165C947.576 220.847 934.23 226.185 920.884 226.185C907.538 226.185 893.524 221.514 893.524 202.165Z" fill="black"/>
<path d="M1121.08 111.424H1095.05V245.534H1121.08V111.424Z" fill="black"/>
<path d="M1183.14 108.088C1211.16 108.088 1231.85 124.768 1231.85 150.122H1207.16C1206.49 131.44 1183.8 128.104 1169.79 132.775C1164.45 134.776 1160.45 138.112 1159.11 144.117C1157.78 149.455 1159.78 156.127 1164.45 158.129C1182.47 166.803 1202.49 166.803 1219.84 175.476C1235.19 183.483 1239.86 202.832 1234.52 218.178C1231.85 225.517 1227.85 231.522 1221.17 236.86C1217.17 239.529 1213.17 241.53 1209.16 243.532C1205.83 245.534 1201.82 245.534 1197.82 246.868C1180.47 250.871 1163.12 248.87 1148.44 239.529C1135.76 231.522 1129.09 218.845 1129.09 204.166H1155.11C1155.11 223.516 1174.46 230.188 1195.82 224.85C1202.49 222.848 1209.16 217.511 1209.83 210.171C1210.5 204.834 1207.83 198.829 1202.49 196.827C1186.47 190.155 1169.12 188.821 1153.11 182.148C1136.43 174.809 1127.08 154.126 1133.76 136.111C1141.1 116.094 1160.45 108.088 1183.14 108.088Z" fill="black"/>
<path d="M1323.27 111.424V163.467H1270.55V111.424H1243.86V245.534H1270.55V186.152H1323.27V245.534H1349.29V111.424H1323.27Z" fill="black"/>
<path d="M1388 111.424H1361.98V245.534H1388V111.424Z" fill="black"/>
</svg>
